<?xml version="1.0" encoding="iso-8859-1"?>
<!-- Generator: Adobe Illustrator 19.0.0, SVG Export Plug-In . SVG Version: 6.00 Build 0)  -->
<svg version="1.1" id="Layer_1" xmlns="http://www.w3.org/2000/svg" xmlns:xlink="http://www.w3.org/1999/xlink" x="0px" y="0px"
	 viewBox="0 0 512.001 512.001" style="enable-background:new 0 0 512.001 512.001;" xml:space="preserve">
<path style="fill:#BD6428;" d="M88.082,64.001h288c17.672,0,32,14.328,32,32v384c0,17.672-14.328,32-32,32h-288
	c-17.672,0-32-14.328-32-32v-384C56.082,78.329,70.41,64.001,88.082,64.001z"/>
<path style="fill:#F5F6F6;" d="M96.082,480.001c-4.416,0-8-3.584-8-8v-368c0-4.416,3.584-8,8-8h272c4.416,0,8,3.584,8,8v288l-88,88
	H96.082z"/>
<path style="fill:#AE5C26;" d="M152.082,96.001h-16v-16c0-8.84,7.16-16,16-16l0,0V96.001z"/>
<g>
	<path style="fill:#9BA7AF;" d="M140.082,224.001h184c6.624,0,12,5.376,12,12l0,0c0,6.624-5.376,12-12,12h-184
		c-6.624,0-12-5.376-12-12l0,0C128.082,229.377,133.458,224.001,140.082,224.001z"/>
	<path style="fill:#9BA7AF;" d="M140.082,272.001h184c6.624,0,12,5.376,12,12l0,0c0,6.624-5.376,12-12,12h-184
		c-6.624,0-12-5.376-12-12l0,0C128.082,277.377,133.458,272.001,140.082,272.001z"/>
	<path style="fill:#9BA7AF;" d="M140.082,320.001h104c6.624,0,12,5.376,12,12l0,0c0,6.624-5.376,12-12,12h-104
		c-6.624,0-12-5.376-12-12l0,0C128.082,325.377,133.458,320.001,140.082,320.001z"/>
	<path style="fill:#9BA7AF;" d="M180.082,160.001h104c6.624,0,12,5.376,12,12l0,0c0,6.624-5.376,12-12,12h-104
		c-6.624,0-12-5.376-12-12l0,0C168.082,165.377,173.458,160.001,180.082,160.001z"/>
</g>
<path style="fill:#CECECE;" d="M376.082,392.001h-80c-4.416,0-8,3.584-8,8v80L376.082,392.001z"/>
<path style="fill:#D17F4D;" d="M64.082,88.001L64.082,88.001c4.416,0,8,3.584,8,8v264c0,4.416-3.584,8-8,8l0,0c-4.416,0-8-3.584-8-8
	v-264C56.082,91.585,59.666,88.001,64.082,88.001z"/>
<g>
	<path style="fill:#E9E9E9;" d="M280.082,408.001v16c0,4.416-3.584,8-8,8l0,0c-4.416,0-8,3.584-8,8s-3.584,8-8,8h-8
		c-4.416,0-8,3.584-8,8s-3.584,8-8,8h-144v8c0,4.416,3.584,8,8,8h192v-80C283.666,400.001,280.082,403.585,280.082,408.001z"/>
	<path style="fill:#E9E9E9;" d="M368.082,96.001h-232c0.128,2.4,0.128,4.8,0,7.2c-0.44,8.824,6.352,16.336,15.176,16.776
		c0.28,0.016,0.552,0.024,0.824,0.024h192c8.84,0,16,7.16,16,16v24l0,0c0,8.84,7.16,16,16,16l0,0v-72
		C376.082,99.585,372.506,96.001,368.082,96.001z"/>
</g>
<path style="fill:#9BA7AF;" d="M284.802,45.121c-6.96-2.872-12.232-8.76-14.32-16c-6.184-21.208-28.392-33.384-49.6-27.2
	c-13.12,3.824-23.376,14.08-27.2,27.2c-2.088,7.24-7.36,13.128-14.32,16l-17.2,6.88c-6.064,2.416-10.056,8.272-10.08,14.8v29.2
	c0,8.84,7.16,16,16,16h128c8.84,0,16-7.16,16-16v-29.2c-0.024-6.528-4.016-12.384-10.08-14.8L284.802,45.121z M232.082,56.001
	c-8.84,0-16-7.16-16-16s7.16-16,16-16s16,7.16,16,16S240.922,56.001,232.082,56.001z"/>
<path style="fill:#72818B;" d="M288.082,64.001c-4.416,0-8,3.584-8,8l0,0c0,4.416-3.584,8-8,8h-16c-4.416,0-8,3.584-8,8l0,0
	c0,4.416-3.584,8-8,8h-88c0,8.84,7.16,16,16,16h128c8.84,0,16-7.16,16-16v-32H288.082z"/>
<path style="fill:#AFBABF;" d="M201.122,40.001c-4.416,0.144-8.112-3.328-8.248-7.744c-0.024-0.76,0.064-1.52,0.248-2.256
	c4.584-17.744,20.64-30.104,38.96-30c4.416,0,8,3.584,8,8s-3.584,8-8,8c-10.96-0.016-20.544,7.392-23.28,18
	C207.898,37.513,204.746,39.969,201.122,40.001z"/>
<g>
	<path style="fill:#A35623;" d="M376.082,80.001h-32c-8.84,0-16-7.16-16-16h-16v32h56c4.416,0,8,3.584,8,8v288l-88,88h-192
		c0,8.84,7.16,16,16,16h194.72c8.488,0.008,16.632-3.36,22.64-9.36l53.28-53.28c6-6.008,9.368-14.152,9.36-22.64V96.001
		C392.082,87.169,384.922,80.001,376.082,80.001z"/>
	<path style="fill:#A35623;" d="M376.082,263.361v80.64c0,4.416,3.584,8,8,8s8-3.584,8-8v-8c0-4.416,3.584-8,8-8s8-3.584,8-8v-88
		L376.082,263.361z"/>
</g>
<path style="fill:#AFBABF;" d="M400.082,312.001c-2.128,0.016-4.168-0.824-5.68-2.32c-11.928-11.96-11.928-31.32,0-43.28l32-32
	c5.72-5.712,5.728-14.984,0.016-20.704c-0.008-0.008-0.008-0.008-0.016-0.016c-2.872-3.352-2.48-8.408,0.872-11.28
	c2.992-2.568,7.416-2.568,10.408,0c11.928,11.96,11.928,31.32,0,43.28l-32,32c-5.72,5.712-5.728,14.984-0.016,20.704
	c0.008,0.008,0.008,0.008,0.016,0.016c3.096,3.152,3.04,8.216-0.112,11.312C404.106,311.153,402.138,311.969,400.082,312.001z"/>
<path style="fill:#35363E;" d="M248.082,344.001c-4.416,0.008-8.008-3.56-8.024-7.976c0-0.88,0.136-1.752,0.424-2.584l8-24
	c1.392-4.2,5.92-6.472,10.12-5.08c4.2,1.392,6.472,5.92,5.08,10.12l0,0l-2.96,8.8l8.8-2.96c4.2-1.392,8.728,0.88,10.12,5.08
	c1.392,4.2-0.88,8.728-5.08,10.12l-24,8C249.77,343.809,248.93,343.977,248.082,344.001z"/>
<path style="fill:#3CB54A;" d="M261.762,277.681l44.72,44.72c3.12,3.104,8.16,3.104,11.28,0l114.32-114.4l-56-56l-114.32,114.32
	c-3.136,3.112-3.16,8.176-0.048,11.312C261.738,277.649,261.746,277.665,261.762,277.681z"/>
<path style="fill:#0E9347;" d="M420.082,196.001l-93.68,93.68c-3.12,3.104-8.16,3.104-11.28,0l-11.52-11.52
	c-2.736-2.808-7.112-3.216-10.32-0.96c-2.96,2.96-5.76,5.52-14.8-3.52l-6.4-6.4c-2.736-2.808-7.112-3.216-10.32-0.96
	c-3.104,3.12-3.104,8.16,0,11.28l38.32,38.4l0,0l6.32,6.32c3.12,3.104,8.16,3.104,11.28,0l114.4-114.32L420.082,196.001z"/>
<g>
	<path style="fill:#595A66;" d="M376.082,152.001l56,56l12.4-12.4c15.248-15.552,15.248-40.448,0-56l0,0
		c-15.552-15.248-40.448-15.248-56,0L376.082,152.001z"/>
	<path style="fill:#595A66;" d="M245.762,309.681l28.72,28.72c3.12,3.104,8.16,3.104,11.28,0l18.32-18.4l-40-40l-18.32,18.32
		c-3.136,3.112-3.16,8.176-0.048,11.312C245.738,309.649,245.746,309.665,245.762,309.681z"/>
</g>
<path style="fill:#E9E9E9;" d="M306.402,322.321l-2.32-2.32l-18.32,18.32c-3.12,3.104-8.16,3.104-11.28,0l-2.4-2.32l-21.76,7.28
	c-0.704,0.352-1.464,0.592-2.24,0.72h36.48c7.608-0.008,15.12-1.784,21.92-5.2l14.56-7.28c4.672-2.344,8.944-5.424,12.64-9.12
	c6.656-6.672,15.696-10.408,25.12-10.4h1.28c8.84,0,16-7.16,16-16v-32l-58.32,58.32c-3.112,3.136-8.176,3.16-11.312,0.048
	C306.434,322.353,306.418,322.337,306.402,322.321z"/>
<path style="fill:#35363E;" d="M264.082,280.001L264.082,280.001c-4.416,4.392-4.44,11.536-0.048,15.952
	c0.016,0.016,0.032,0.032,0.048,0.048l16,16c4.416,4.136,4.648,11.072,0.512,15.488c-0.16,0.176-0.336,0.344-0.512,0.512l-8,8
	l2.32,2.32c3.12,3.104,8.16,3.104,11.28,0l18.4-18.32L264.082,280.001z"/>
<path style="fill:#89C763;" d="M368.082,200.001c-4.416,0.024-8.024-3.536-8.048-7.952c-0.016-2.152,0.84-4.216,2.368-5.728l32-32
	c3.352-2.872,8.408-2.48,11.28,0.872c2.568,2.992,2.568,7.416,0,10.408l-32,32C372.21,199.105,370.194,199.969,368.082,200.001z"/>
<path style="fill:#6F707E;" d="M397.762,173.681l8-8c2.872-3.352,2.48-8.408-0.872-11.28c-2.992-2.568-7.416-2.568-10.408,0l-8,8
	L397.762,173.681z"/>
<path style="fill:#35363E;" d="M432.082,208.001l8-8c2.912-3.576,2.6-8.792-0.72-12c-3.12-3.104-8.16-3.104-11.28,0l-8,8
	L432.082,208.001z"/>
<g>
</g>
<g>
</g>
<g>
</g>
<g>
</g>
<g>
</g>
<g>
</g>
<g>
</g>
<g>
</g>
<g>
</g>
<g>
</g>
<g>
</g>
<g>
</g>
<g>
</g>
<g>
</g>
<g>
</g>
</svg>
